<svg xmlns="http://www.w3.org/2000/svg" width="62" height="63" viewBox="0 0 62 63" fill="none"><circle cx="31" cy="31.3672" r="31" fill="url(#paint0_linear_24081_11444)"></circle><path d="M36.9625 16.3013L35.5225 21.9333H25.9011L24.9198 19.608C24.6852 18.9146 25.1971 18.2 25.9331 18.2H29.6024C29.7624 18.2 29.9117 18.168 30.0504 18.1146V18.9893C30.0504 19.5333 30.4131 19.9706 30.8504 19.9706C31.2877 19.9706 31.6504 19.5333 31.6504 18.9893V15.0426C31.7358 15.0106 31.8211 15 31.9171 15H35.9171C36.5998 15 37.1118 15.6293 36.9625 16.3013Z" fill="white"></path><path d="M36.4 23.5332H25.6C25.0477 23.5332 24.6 23.9809 24.6 24.5332V25.7332C24.6 26.2855 25.0477 26.7332 25.6 26.7332H36.4C36.9523 26.7332 37.4 26.2855 37.4 25.7332V24.5332C37.4 23.9809 36.9523 23.5332 36.4 23.5332Z" fill="white"></path><path d="M43.8958 36.8666C43.1384 32.7279 39.7465 29.6986 37.4531 28.0879C37.1118 28.2479 36.7278 28.3333 36.3331 28.3333H25.6664C25.2717 28.3333 24.8878 28.2479 24.5464 28.0879C22.253 29.6986 18.861 32.7279 18.1037 36.8666C16.8344 43.8319 20.2691 46.9999 30.9997 46.9999C41.8477 46.9999 45.1652 43.8319 43.8958 36.8666ZM30.8825 36.5466L31.5011 36.6959C32.6638 36.9946 33.4745 38.0292 33.4745 39.2346V39.5013C33.4745 40.5893 32.7705 41.5066 31.7998 41.848V42.552C31.7998 42.9894 31.4371 43.352 30.9998 43.352C30.5625 43.352 30.1998 42.9894 30.1998 42.552V41.848C29.2292 41.5067 28.5251 40.5893 28.5251 39.5013C28.5251 39.0533 28.8771 38.7013 29.3251 38.7013C29.7625 38.7013 30.1251 39.0533 30.1251 39.5013C30.1251 39.9813 30.5198 40.376 30.9998 40.376C31.4798 40.376 31.8745 39.9813 31.8745 39.5013V39.2346C31.8745 38.7653 31.5652 38.3706 31.1171 38.2533L30.4985 38.104C29.3358 37.8054 28.5251 36.7707 28.5251 35.5653V35.2986C28.5251 34.2106 29.2291 33.2933 30.1998 32.9519V32.2479C30.1998 31.8106 30.5625 31.4479 30.9998 31.4479C31.4371 31.4479 31.7998 31.8106 31.7998 32.2479V32.9519C32.7704 33.2932 33.4745 34.2106 33.4745 35.2986C33.4745 35.7466 33.1225 36.0986 32.6745 36.0986C32.2371 36.0986 31.8745 35.7466 31.8745 35.2986C31.8745 34.8186 31.4798 34.4239 30.9998 34.4239C30.5198 34.4239 30.1251 34.8186 30.1251 35.2986V35.5653C30.1251 36.0346 30.4344 36.4292 30.8825 36.5466Z" fill="white"></path><defs><linearGradient id="paint0_linear_24081_11444" x1="31" y1="0.367187" x2="31" y2="62.3672" gradientUnits="userSpaceOnUse"><stop stop-color="#FFBC00"></stop><stop offset="1" stop-color="#FF0032"></stop></linearGradient></defs></svg>