<svg xmlns="http://www.w3.org/2000/svg" width="72" height="73" viewBox="0 0 72 73" fill="none"><circle opacity="0.7" cx="36" cy="36.3677" r="36" fill="#FFE2CC"></circle><g clip-path="url(#clip0_4027_7568)"><path d="M39.5248 32.8401C39.1458 32.4588 38.7255 32.1208 38.2717 31.8323C37.0699 31.0627 35.6728 30.6538 34.2458 30.6538C32.2651 30.6501 30.3648 31.4371 28.9667 32.8401L22.1839 39.6282C20.7882 41.0266 20.0037 42.9214 20.0024 44.8971C19.9998 49.0201 23.34 52.3646 27.463 52.3672C29.4406 52.3741 31.3391 51.5909 32.7367 50.1916L38.3357 44.5926C38.4374 44.4918 38.4942 44.3542 38.4934 44.2109C38.4917 43.9164 38.2516 43.6791 37.9571 43.6808H37.7438C36.574 43.6849 35.4147 43.4603 34.3311 43.0196C34.1315 42.9374 33.902 42.9838 33.7499 43.1369L29.7239 47.1682C28.4738 48.4183 26.4469 48.4183 25.1968 47.1682C23.9466 45.918 23.9466 43.8911 25.1968 42.641L32.0062 35.8369C33.2554 34.5893 35.2789 34.5893 36.5281 35.8369C37.3699 36.6292 38.6831 36.6292 39.5249 35.8369C39.8871 35.4744 40.1066 34.9936 40.1434 34.4824C40.1824 33.8716 39.9571 33.2734 39.5248 32.8401Z" fill="#FBC52C"></path><path d="M49.811 22.5538C46.8954 19.6383 42.1684 19.6383 39.2529 22.5538L33.6592 28.1421C33.5056 28.2965 33.4613 28.5286 33.5472 28.7287C33.6321 28.9294 33.8306 29.0582 34.0484 29.054H34.2457C35.4141 29.0519 36.5716 29.2783 37.6531 29.7206C37.8527 29.8027 38.0822 29.7564 38.2343 29.6033L42.2496 25.5933C43.4997 24.3431 45.5266 24.3431 46.7768 25.5933C48.0269 26.8434 48.0269 28.8703 46.7768 30.1205L41.775 35.1169L41.7323 35.1649L39.9833 36.9033C38.7341 38.1509 36.7106 38.1509 35.4614 36.9033C34.6196 36.111 33.3064 36.111 32.4647 36.9033C32.1002 37.2685 31.8804 37.7535 31.8461 38.2683C31.8071 38.8792 32.0324 39.4774 32.4647 39.9107C33.0819 40.5306 33.804 41.036 34.5976 41.4038C34.7096 41.4571 34.8215 41.4998 34.9335 41.5477C35.0455 41.5957 35.1628 41.633 35.2748 41.6757C35.3868 41.7184 35.504 41.7557 35.616 41.7877L35.9307 41.873C36.1439 41.9263 36.3573 41.969 36.5758 42.0063C36.8392 42.0454 37.1044 42.0703 37.3704 42.081H37.7436H37.7756L38.0956 42.0437C38.2129 42.0383 38.3355 42.0117 38.4742 42.0117H38.6555L39.0234 41.9584L39.1941 41.9264L39.5033 41.8624H39.562C40.8718 41.5334 42.0679 40.8552 43.0227 39.9L49.8108 33.1119C52.7265 30.1964 52.7265 25.4694 49.811 22.5538Z" fill="#FF0032"></path></g><defs><clipPath id="clip0_4027_7568"><rect width="32" height="32" fill="white" transform="translate(20 20.3672)"></rect></clipPath></defs></svg>