<svg xmlns="http://www.w3.org/2000/svg" width="72" height="73" viewBox="0 0 72 73" fill="none"><circle opacity="0.7" cx="36" cy="36.3677" r="36" fill="#FFE2CC"></circle><g clip-path="url(#clip0_4027_7544)"><path d="M41.6875 31.7422C36.0012 31.7422 31.375 36.3684 31.375 42.0547C31.375 47.741 36.0012 52.3672 41.6875 52.3672C47.3738 52.3672 52 47.741 52 42.0547C52 36.3684 47.3738 31.7422 41.6875 31.7422ZM41.6875 41.1172C43.2384 41.1172 44.5 42.3788 44.5 43.9297C44.5 45.1503 43.7139 46.1812 42.625 46.5695V48.6172H40.75V46.5695C39.6611 46.1812 38.875 45.1503 38.875 43.9297H40.75C40.75 44.4469 41.1702 44.8672 41.6875 44.8672C42.2048 44.8672 42.625 44.4469 42.625 43.9297C42.625 43.4124 42.2048 42.9922 41.6875 42.9922C40.1366 42.9922 38.875 41.7306 38.875 40.1797C38.875 38.9591 39.6611 37.9282 40.75 37.5399V35.4922H42.625V37.5399C43.7139 37.9282 44.5 38.9591 44.5 40.1797H42.625C42.625 39.6624 42.2048 39.2422 41.6875 39.2422C41.1702 39.2422 40.75 39.6624 40.75 40.1797C40.75 40.6969 41.1702 41.1172 41.6875 41.1172Z" fill="#FBC52C"></path><path d="M30.4375 31.7422C36.22 31.7422 40.75 29.2712 40.75 26.1172C40.75 22.9632 36.22 20.3672 30.4375 20.3672C24.655 20.3672 20 22.9632 20 26.1172C20 29.2712 24.655 31.7422 30.4375 31.7422Z" fill="#FF0032"></path><path d="M20 41.4648V42.9924C20 46.1464 24.655 48.6174 30.4375 48.6174C30.7655 48.6174 31.0833 48.5872 31.4062 48.5714C30.6871 47.4407 30.1508 46.1861 29.835 44.8448C25.6534 44.7294 22.0226 43.4445 20 41.4648Z" fill="#FF0032"></path><path d="M29.5451 42.9447C29.5236 42.6498 29.5 42.3552 29.5 42.0549C29.5 41.0776 29.6281 40.1317 29.8464 39.2203C25.6597 39.1069 22.0244 37.8213 20 35.8398V37.3674C20 40.3541 24.2039 42.7013 29.5451 42.9447Z" fill="#FF0032"></path><path d="M30.4375 37.3674C30.4385 37.3674 30.4393 37.3673 30.4404 37.3673C31.0587 35.8895 31.9575 34.5574 33.0737 33.4413C32.227 33.5483 31.352 33.6174 30.4375 33.6174C25.9864 33.6174 22.1204 32.2901 20 30.2148V31.7424C20 34.8964 24.655 37.3674 30.4375 37.3674Z" fill="#FF0032"></path></g><defs><clipPath id="clip0_4027_7544"><rect width="32" height="32" fill="white" transform="translate(20 20.3672)"></rect></clipPath></defs></svg>