<svg xmlns="http://www.w3.org/2000/svg" width="72" height="73" viewBox="0 0 72 73" fill="none"><circle opacity="0.7" cx="36" cy="36.3677" r="36" fill="#FFE2CC"></circle><path d="M24.1035 41.3672C22.3893 41.3672 21 42.7101 21 44.3671C21 46.0241 22.3893 47.3672 24.1035 47.3672C25.8176 47.3672 27.2069 46.0241 27.2069 44.3671C27.2069 42.7101 25.8176 41.3672 24.1035 41.3672ZM48.931 42.3672H32.3793C31.2362 42.3672 30.3103 43.2621 30.3103 44.3671C30.3103 45.4721 31.2362 46.3671 32.3793 46.3671H48.931C50.0741 46.3671 51 45.4721 51 44.3671C51 43.2621 50.0741 42.3672 48.931 42.3672Z" fill="#FBC52C"></path><path d="M21 28.3672C21 26.7102 22.3893 25.3672 24.1035 25.3672C25.8176 25.3672 27.2069 26.7101 27.2069 28.3672C27.2069 30.0242 25.8176 31.3672 24.1035 31.3672C22.3893 31.3672 21 30.0241 21 28.3672Z" fill="#FF0032"></path><path d="M21 36.3672C21 34.7102 22.3893 33.3672 24.1035 33.3672C25.8176 33.3672 27.2069 34.7102 27.2069 36.3672C27.2069 38.0242 25.8176 39.3672 24.1035 39.3672C22.3893 39.3672 21 38.0242 21 36.3672Z" fill="#FF0032"></path><path d="M48.931 30.3672H32.3793C31.2362 30.3672 30.3103 29.4722 30.3103 28.3672C30.3103 27.2622 31.2362 26.3672 32.3793 26.3672H48.931C50.0741 26.3672 51 27.2622 51 28.3672C51 29.4722 50.0741 30.3672 48.931 30.3672Z" fill="#FF0032"></path><path d="M32.3793 34.3672H48.931C50.0741 34.3672 51 35.2622 51 36.3672C51 37.4722 50.0741 38.3672 48.931 38.3672H32.3793C31.2362 38.3672 30.3103 37.4722 30.3103 36.3672C30.3103 35.2622 31.2362 34.3672 32.3793 34.3672Z" fill="#FF0032"></path></svg>