<svg xmlns="http://www.w3.org/2000/svg" width="24" height="25" viewBox="0 0 24 25" fill="none"><circle opacity="0.7" cx="12" cy="12.3677" r="12" fill="#FFE2CC"></circle><path d="M11.1799 17C11.0772 17 10.9932 16.9673 10.9279 16.902C10.8626 16.8367 10.8299 16.7527 10.8299 16.65V10.07C10.8299 9.96733 10.8626 9.88333 10.9279 9.818C10.9932 9.75267 11.0772 9.72 11.1799 9.72H12.8319C12.9252 9.72 13.0046 9.75267 13.0699 9.818C13.1446 9.88333 13.1819 9.96733 13.1819 10.07V16.65C13.1819 16.7527 13.1446 16.8367 13.0699 16.902C13.0046 16.9673 12.9252 17 12.8319 17H11.1799ZM11.1659 8.67C11.0632 8.67 10.9792 8.63733 10.9139 8.572C10.8486 8.50667 10.8159 8.42267 10.8159 8.32V7.074C10.8159 6.97133 10.8486 6.88733 10.9139 6.822C10.9792 6.74733 11.0632 6.71 11.1659 6.71H12.8319C12.9346 6.71 13.0186 6.74733 13.0839 6.822C13.1586 6.88733 13.1959 6.97133 13.1959 7.074V8.32C13.1959 8.42267 13.1586 8.50667 13.0839 8.572C13.0186 8.63733 12.9346 8.67 12.8319 8.67H11.1659Z" fill="url(#paint0_linear_24140_11497)"></path><defs><linearGradient id="paint0_linear_24140_11497" x1="12" y1="7" x2="12" y2="17" gradientUnits="userSpaceOnUse"><stop stop-color="#FFBC00"></stop><stop offset="1" stop-color="#FF0032"></stop></linearGradient></defs></svg>