<svg xmlns="http://www.w3.org/2000/svg" width="62" height="63" viewBox="0 0 62 63" fill="none"><circle cx="31" cy="31.3672" r="31" fill="url(#paint0_linear_24081_11446)"></circle><g clip-path="url(#clip0_24081_11446)"><path d="M30.9493 16.0293C27.5774 16.0293 24.834 18.7727 24.834 22.1446C24.834 25.3544 27.322 27.9901 30.4698 28.2363V31.8233C29.6587 30.7063 28.3316 29.1413 26.4502 27.8144C25.3397 27.0311 24.0321 26.5885 22.8956 26.4414C22.3273 26.3679 21.8022 26.3687 21.3458 26.4528C20.8893 26.5361 20.4748 26.6926 20.209 27.066C19.9432 27.4394 19.9285 27.8851 19.9981 28.3424C20.0677 28.7997 20.2376 29.2917 20.4893 29.8004C20.9928 30.8177 21.8246 31.8933 22.9034 32.6539C25.6586 34.5965 29.1116 34.3076 30.4698 34.0963V37.0016H22.9698C22.4244 37.0016 21.9698 37.4562 21.9698 38.0016V39.0006H39.9698V38.001C39.9698 37.4556 39.5151 37.001 38.9698 37.001H31.4698V35.5234C32.2575 35.637 36.376 36.0925 39.3946 33.6865C40.4267 32.8638 41.192 31.7454 41.6348 30.7002C41.8562 30.1776 41.9985 29.6734 42.0411 29.2129C42.0837 28.7523 42.0441 28.3083 41.7569 27.9512C41.4696 27.5941 41.0437 27.4607 40.5831 27.4043C40.1225 27.348 39.5952 27.3786 39.0323 27.4854C37.9064 27.699 36.63 28.2182 35.5674 29.0654C33.4809 30.7291 32.1466 32.6729 31.4698 33.8164V28.2344C34.5984 27.9686 37.0655 25.3406 37.0655 22.1446C37.0655 18.7727 34.3211 16.0293 30.9493 16.0293ZM31.4483 25.6699C31.5044 26.3885 30.3952 26.3885 30.4512 25.6699V25.2861H29.4288C28.7102 25.3423 28.7102 24.233 29.4288 24.2891H30.4512L30.442 22.6435C29.3611 22.6436 28.421 21.8646 28.421 20.8233C28.421 19.7819 29.3612 19 30.442 19L30.4512 18.6201C30.4458 18.3436 30.6659 18.1152 30.9424 18.1104C31.2247 18.1066 31.4538 18.3379 31.4483 18.6201V19H32.4698C33.1371 19 33.1371 20.001 32.4698 20.001H31.4483L31.4536 21.6426C32.5334 21.6425 33.4776 22.4244 33.4776 23.4658C33.4776 24.5071 32.5374 25.2861 31.4571 25.2861L31.4483 25.6699ZM30.442 20.001C29.8275 20.001 29.4219 20.3937 29.4219 20.8233C29.4219 21.2528 29.8276 21.6426 30.442 21.6426V20.001ZM32.4776 23.4658C32.4776 23.0362 32.0692 22.6435 31.4537 22.6435L31.4572 24.2891C32.0711 24.2891 32.4776 23.8954 32.4776 23.4658ZM22.4747 40C22.4772 40.0327 22.4722 40.0646 22.4787 40.0977L23.4796 45.0987C23.521 45.3056 23.6078 45.5121 23.7707 45.6895C23.9335 45.8669 24.1959 45.9991 24.4718 45.9991H37.4718C37.7477 45.9991 38.0101 45.867 38.173 45.6895C38.3359 45.512 38.4197 45.3056 38.4611 45.0987L39.4611 40.0977C39.4677 40.0646 39.4636 40.0328 39.466 40H22.4747Z" fill="white"></path></g><defs><linearGradient id="paint0_linear_24081_11446" x1="31" y1="0.367187" x2="31" y2="62.3672" gradientUnits="userSpaceOnUse"><stop stop-color="#FFBC00"></stop><stop offset="1" stop-color="#FF0032"></stop></linearGradient><clipPath id="clip0_24081_11446"><rect width="32" height="32" fill="white" transform="translate(15 15)"></rect></clipPath></defs></svg>