<svg xmlns="http://www.w3.org/2000/svg" width="62" height="63" viewBox="0 0 62 63" fill="none"><circle cx="31" cy="31.3672" r="31" fill="url(#paint0_linear_24081_11443)"></circle><path d="M35.4801 35.7024C35.4801 34.277 35.4801 32.8418 35.4801 31.4164C35.4801 30.8249 35.6643 30.6406 36.2462 30.6406H42.3843C42.908 30.6406 43.1213 30.854 43.1213 31.3776V38.5049C43.1213 38.7473 43.1601 38.8443 43.4316 38.8346C43.9262 38.8055 44.6922 38.8249 45.1868 38.8249C45.3419 38.8249 45.4777 38.8443 45.5456 38.9994C45.6134 39.1546 45.5552 39.2709 45.4583 39.3873C44.1298 40.9485 40.9589 44.2746 39.6304 45.8358C39.4268 46.0782 39.2716 46.0782 39.0583 45.8261C37.7395 44.2746 34.6559 40.9582 33.3371 39.4067C33.2304 39.2806 33.1528 39.1546 33.2401 38.9897C33.3274 38.8249 33.4534 38.8249 33.6086 38.8249C34.1031 38.8249 34.6849 38.8055 35.1795 38.8346C35.451 38.8443 35.4995 38.7473 35.4995 38.5049C35.4801 37.0406 35.4801 37.1667 35.4801 35.7024Z" fill="white"></path><path d="M29.1285 37.3126C28.9928 37.2253 28.9249 37.0604 28.9443 36.9053C28.954 36.4689 28.9443 36.0423 28.954 35.6059C28.954 35.4895 28.9152 35.4508 28.8085 35.4411C27.897 35.3053 27.034 34.9465 26.297 34.4035C26.0837 34.258 25.8897 34.0932 25.7152 33.9089C25.5794 33.7538 25.56 33.6277 25.6861 33.4629C25.9673 33.0847 26.2485 32.7162 26.5394 32.3477C26.6946 32.1538 26.8497 32.1344 27.0437 32.2992C27.6449 32.8423 28.3722 33.2204 29.1576 33.395C29.817 33.5308 30.4473 33.492 31.0485 33.1332C31.6788 32.755 31.9891 31.7562 31.1649 31.1162C30.7382 30.7865 30.234 30.5926 29.7297 30.3792C29.0994 30.1174 28.4594 29.8847 27.8582 29.5647C27.257 29.2447 26.7237 28.8568 26.3261 28.2944C25.9091 27.7029 25.7346 26.9853 25.8219 26.2677C25.977 24.8714 26.8206 24.018 28.0425 23.475C28.2946 23.3683 28.5564 23.2908 28.8279 23.2423C28.9346 23.2229 28.9443 23.1744 28.9443 23.0871C28.9443 22.6217 28.9443 22.1465 28.9443 21.6811C28.9443 21.4289 29.0509 21.3223 29.3031 21.3223H30.3891C30.6122 21.3223 30.7091 21.4192 30.7091 21.6423V23.0483C30.7091 23.1453 30.7382 23.1841 30.8352 23.1938C31.7564 23.3004 32.6291 23.6689 33.3564 24.2411C33.3952 24.2701 33.434 24.3089 33.4728 24.3477C33.6376 24.5029 33.657 24.5901 33.5406 24.7841C33.3176 25.1914 33.0946 25.5889 32.8716 25.9962C32.7455 26.2192 32.5709 26.258 32.3576 26.0932C32.0764 25.8701 31.7758 25.6762 31.4461 25.5211C30.7382 25.1914 30.0109 25.0459 29.2449 25.2495C28.7309 25.3853 28.2849 25.6277 28.1103 26.1804C27.9649 26.6362 28.1103 27.0726 28.4691 27.3829C28.9346 27.7998 29.5067 28.0132 30.0788 28.2362C30.7673 28.5077 31.4558 28.7695 32.1152 29.1186C32.5806 29.3611 32.9879 29.6908 33.3176 30.0883C33.6764 30.5247 33.8413 31.0483 33.8897 31.6108C33.8897 31.6689 33.8994 31.7368 33.8994 31.795C33.9285 31.8532 33.8897 31.9307 33.9285 31.9889V32.0859C33.8897 32.3089 33.9091 32.5417 33.8509 32.7647C33.7055 33.3271 33.434 33.8411 33.0364 34.2774C32.4643 34.9174 31.737 35.2859 30.9128 35.4701C30.8158 35.4701 30.7479 35.5574 30.7479 35.6544V35.6738C30.7576 36.1004 30.7479 36.5368 30.7479 36.9732C30.7479 37.138 30.6897 37.2641 30.5152 37.3126H29.1285Z" fill="white"></path><path d="M30.68 39.6111C30.3794 39.6402 30.0691 39.6499 29.7588 39.6499C24.057 39.6499 19.4315 35.0244 19.4315 29.3226C19.4315 23.6208 24.057 18.9953 29.7588 18.9953C35.4606 18.9953 40.0861 23.6208 40.0861 29.3226H43.0922V29.3129C43.0825 22.0596 37.0122 15.9893 29.7685 15.9893C22.4085 15.9796 16.4352 21.9432 16.4352 29.3032V29.3226C16.4352 36.5759 22.5152 42.6462 29.7588 42.6462C30.9418 42.6462 32.1249 42.4911 33.2691 42.1808L30.68 39.6111Z" fill="white"></path><defs><linearGradient id="paint0_linear_24081_11443" x1="31" y1="0.367187" x2="31" y2="62.3672" gradientUnits="userSpaceOnUse"><stop stop-color="#FFBC00"></stop><stop offset="1" stop-color="#FF0032"></stop></linearGradient></defs></svg>