<svg xmlns="http://www.w3.org/2000/svg" width="24" height="25" viewBox="0 0 24 25" fill="none"><path d="M8.3333 22.0127C8.25285 22.0126 8.17379 21.9916 8.10397 21.9516C8.03415 21.9117 7.976 21.8541 7.93527 21.7847C6.21009 18.8456 1.61293 12.5904 1.56669 12.5275C1.501 12.4382 1.46964 12.3283 1.47834 12.2178C1.48703 12.1073 1.5352 12.0036 1.61404 11.9257L3.02718 10.5293C3.10395 10.4535 3.20489 10.4069 3.31243 10.3978C3.41998 10.3886 3.52733 10.4174 3.61582 10.4792L8.23707 13.7061C11.3094 9.75922 14.1646 7.03536 16.0412 5.43041C18.1447 3.63119 19.482 2.82271 19.5379 2.78902C19.6097 2.74596 19.6918 2.72321 19.7754 2.72321H22.0615C22.1551 2.72319 22.2465 2.75162 22.3235 2.80471C22.4006 2.85781 22.4596 2.93307 22.4929 3.02052C22.5262 3.10797 22.5322 3.20347 22.5099 3.29436C22.4877 3.38526 22.4384 3.46725 22.3685 3.52947C18.9794 6.54793 15.4558 11.3439 13.0967 14.8356C10.5323 18.631 8.75205 21.7485 8.73438 21.7795C8.6943 21.8499 8.63643 21.9084 8.56657 21.9494C8.4967 21.9903 8.41731 22.0121 8.33635 22.0126L8.3333 22.0127Z" fill="url(#paint0_linear_38_111)"></path><defs><linearGradient id="paint0_linear_38_111" x1="12" y1="2.72321" x2="12" y2="22.0127" gradientUnits="userSpaceOnUse"><stop stop-color="#FFBC00"></stop><stop offset="1" stop-color="#FF0032"></stop></linearGradient></defs></svg>