<svg xmlns="http://www.w3.org/2000/svg" width="62" height="63" viewBox="0 0 62 63" fill="none"><circle cx="31" cy="31.3672" r="31" fill="url(#paint0_linear_24081_11445)"></circle><g clip-path="url(#clip0_24081_11445)"><g clip-path="url(#clip1_24081_11445)"><path d="M40.7558 32.0316L28.8551 43.9322C28.7164 44.0709 28.5645 44.203 28.406 44.3219C28.6041 44.3747 28.8089 44.4011 29.0202 44.4011H40.2076C41.5615 44.4011 42.6644 43.2982 42.6644 41.9444V31.9391C42.136 31.9061 41.5945 31.84 41.0331 31.7344C40.9473 31.8334 40.8548 31.9325 40.7558 32.0316Z" fill="white"></path><path d="M45.7881 24.2385C45.7683 24.2187 45.7485 24.1989 45.7286 24.1791C44.6258 23.0762 43.0209 22.0592 41.1982 21.2997C40.868 21.161 40.5312 21.0355 40.1944 20.9233V20.9035C40.1746 19.4439 38.999 18.2684 37.5395 18.2486L30.407 18.1429C29.4626 18.1297 28.5513 18.4995 27.8842 19.1666L15.9902 31.0738C15.0326 32.0314 15.0326 33.59 15.9902 34.5476L23.9019 42.4594C24.8595 43.417 26.4181 43.417 27.3757 42.4594L39.283 30.5521C39.6264 30.2087 39.884 29.8058 40.0623 29.3634C41.2576 29.7002 42.42 29.8785 43.4436 29.8719C45.9796 29.8587 46.8183 28.7492 47.0957 28.0888C47.3665 27.4284 47.5646 26.0481 45.7881 24.2385ZM31.0542 30.9946C30.7769 31.1465 30.4929 31.3116 30.2089 31.4569C29.9381 31.5956 29.8457 31.5625 29.7466 31.272C29.5419 30.6908 29.2117 30.1955 28.756 29.786C28.6371 29.6804 28.5116 29.5813 28.3597 29.5219C27.8182 29.3105 27.3427 29.6606 27.4087 30.2417C27.4418 30.5323 27.5342 30.8097 27.6465 31.0804C27.838 31.5493 28.0427 32.0182 28.1814 32.5069C28.6305 34.0655 27.6399 35.5977 26.0747 35.7496C25.5067 35.8024 24.9652 35.6835 24.4699 35.3996C24.252 35.2741 24.0869 35.2873 23.9218 35.4722C23.7567 35.6505 23.5717 35.8156 23.4 35.9873C23.2481 36.1392 23.083 36.1458 22.9311 35.9939C22.7396 35.8156 22.5547 35.6241 22.3698 35.4392C22.2113 35.2741 22.2245 35.1024 22.383 34.9439C22.5085 34.8184 22.6339 34.6863 22.7594 34.5608C23.0368 34.2769 23.0368 34.257 22.8123 33.9466C22.5217 33.5504 22.2641 33.1343 22.1056 32.6654C21.9801 32.3022 22.0132 32.2098 22.3434 32.0248C22.5877 31.8862 22.8321 31.7475 23.083 31.6154C23.3736 31.4635 23.4595 31.4965 23.5585 31.8069C23.7236 32.3352 23.9944 32.8041 24.3312 33.24C24.5491 33.524 24.8199 33.7353 25.1501 33.8674C25.7709 34.1117 26.3389 33.6759 26.2728 33.0155C26.253 32.7909 26.187 32.573 26.1011 32.3616C25.8898 31.8201 25.619 31.2984 25.4803 30.7238C25.2492 29.7992 25.3549 28.9539 26.1011 28.2935C26.9465 27.5472 27.8908 27.501 28.8881 27.9633C29.2975 28.1548 29.2975 28.1614 29.6145 27.8444C29.7202 27.7387 29.8259 27.6331 29.9381 27.5274C30.1825 27.2963 30.2617 27.2963 30.5061 27.5274C30.5787 27.6001 30.6514 27.6727 30.724 27.7453C31.2259 28.2473 31.2259 28.2473 30.724 28.7558C30.3674 29.1124 30.3674 29.1124 30.6646 29.5219C30.8957 29.8389 31.074 30.1757 31.2127 30.5389C31.2854 30.737 31.2458 30.8889 31.0542 30.9946ZM45.1805 27.2963C44.956 27.8312 42.5587 28.3001 38.9198 26.7811C37.8499 26.3387 36.8593 25.7839 36.047 25.1895C36.0206 25.2226 35.9875 25.2556 35.9611 25.2886C35.1686 26.0811 33.8742 26.0811 33.0817 25.2886C32.2892 24.4961 32.2892 23.2017 33.0817 22.4092C33.8742 21.6167 35.1686 21.6167 35.9611 22.4092C36.4366 22.8847 36.6215 23.5319 36.5357 24.1461C37.315 24.7008 38.2528 25.2094 39.25 25.6254C39.6066 25.7707 39.9434 25.9028 40.2736 26.0151L40.234 23.1489C40.2934 23.1753 40.3463 23.1951 40.4057 23.2215C41.9643 23.8687 43.3644 24.7537 44.2691 25.6584C44.2823 25.6716 44.2955 25.6849 44.3088 25.6981C45.1673 26.5632 45.2531 27.118 45.1805 27.2963Z" fill="white"></path></g></g><defs><linearGradient id="paint0_linear_24081_11445" x1="31" y1="0.367187" x2="31" y2="62.3672" gradientUnits="userSpaceOnUse"><stop stop-color="#FFBC00"></stop><stop offset="1" stop-color="#FF0032"></stop></linearGradient><clipPath id="clip0_24081_11445"><rect width="32" height="32" fill="white" transform="translate(15 15)"></rect></clipPath><clipPath id="clip1_24081_11445"><rect width="32" height="32" fill="white" transform="translate(15.272 15.2725)"></rect></clipPath></defs></svg>