<svg xmlns="http://www.w3.org/2000/svg" width="72" height="72" viewBox="0 0 72 72" fill="none"><circle opacity="0.7" cx="36" cy="36" r="36" fill="#FFE2CC"></circle><path d="M30.7734 30.7493C32.3271 30.7493 33.5866 29.4898 33.5866 27.9362C33.5866 26.3825 32.3271 25.123 30.7734 25.123C29.2198 25.123 27.9603 26.3825 27.9603 27.9362C27.9603 29.4898 29.2198 30.7493 30.7734 30.7493Z" fill="#FBC52C"></path><path d="M31.1251 40.8825C31.1891 41.2022 31.221 41.5218 31.221 41.8415V41.8735C31.3489 41.6177 31.5407 41.394 31.7325 41.1382C32.4038 40.371 33.2349 39.7957 34.1619 39.444C33.0751 38.8047 32.3718 37.6539 32.3718 36.2794C32.3718 34.9048 33.139 33.7221 34.2898 33.0827C33.4267 32.1557 32.18 31.5483 30.8374 31.5483C30.1661 31.5483 29.5907 31.6762 29.0473 31.9C29.1752 32.4114 29.3031 32.859 29.3031 33.3704C29.3031 34.713 28.5678 35.8638 27.5129 36.5351C29.367 37.2064 30.7735 38.8367 31.1251 40.8825Z" fill="#FBC52C"></path><path d="M41.2586 30.7493C42.8122 30.7493 44.0717 29.4898 44.0717 27.9362C44.0717 26.3825 42.8122 25.123 41.2586 25.123C39.7049 25.123 38.4454 26.3825 38.4454 27.9362C38.4454 29.4898 39.7049 30.7493 41.2586 30.7493Z" fill="#FBC52C"></path><path d="M44.583 36.5351C43.4961 35.8958 42.7929 34.745 42.7929 33.3705C42.7929 32.891 42.8888 32.4115 43.0806 31.9639C42.5371 31.7082 41.8978 31.6123 41.2904 31.6123C39.9479 31.6123 38.7012 32.1877 37.8381 33.1147C38.9889 33.7541 39.788 34.9368 39.788 36.3433C39.788 37.6859 39.0528 38.8367 37.9979 39.508C38.893 39.8277 39.6921 40.3711 40.3314 41.0743C40.5552 41.3301 40.715 41.5538 40.8749 41.8415C40.8749 41.4579 40.9068 41.1063 40.9708 40.7547C41.3224 38.7728 42.697 37.1745 44.583 36.5351Z" fill="#FBC52C"></path><path d="M36.048 39.1565C37.6016 39.1565 38.8611 37.897 38.8611 36.3434C38.8611 34.7898 37.6016 33.5303 36.048 33.5303C34.4944 33.5303 33.2349 34.7898 33.2349 36.3434C33.2349 37.897 34.4944 39.1565 36.048 39.1565Z" fill="#FF0032"></path><path d="M40.8109 44.8143C40.8109 42.193 38.6692 40.0513 36.048 40.0513C33.4267 40.0513 31.285 42.193 31.285 44.8143V46.3167C32.4038 47.0199 34.1619 47.4035 36.048 47.4035C37.934 47.4035 39.6921 46.988 40.8109 46.3167V44.8143Z" fill="#FF0032"></path><path d="M25.5949 36.2156C27.1485 36.2156 28.408 34.9561 28.408 33.4025C28.408 31.8488 27.1485 30.5894 25.5949 30.5894C24.0412 30.5894 22.7818 31.8488 22.7818 33.4025C22.7818 34.9561 24.0412 36.2156 25.5949 36.2156Z" fill="#FF0032"></path><path d="M30.3579 43.3118V41.8094C30.3579 39.1881 28.2162 37.0464 25.595 37.0464C22.9737 37.0464 20.8 39.1881 20.8 41.8413V43.3438C21.9188 44.047 23.677 44.4306 25.563 44.4306C27.481 44.3986 29.2072 44.0151 30.3579 43.3118Z" fill="#FF0032"></path><path d="M46.4371 36.2156C47.9908 36.2156 49.2502 34.9561 49.2502 33.4025C49.2502 31.8488 47.9908 30.5894 46.4371 30.5894C44.8835 30.5894 43.624 31.8488 43.624 33.4025C43.624 34.9561 44.8835 36.2156 46.4371 36.2156Z" fill="#FF0032"></path><path d="M46.437 37.0786C43.8158 37.0786 41.674 39.2204 41.674 41.8416V43.344C42.7928 44.0473 44.551 44.4309 46.437 44.4309C48.323 44.4309 50.0812 44.0153 51.2 43.344V41.8416C51.2 39.2204 49.0583 37.0786 46.437 37.0786Z" fill="#FF0032"></path></svg>