<svg xmlns="http://www.w3.org/2000/svg" width="72" height="72" viewBox="0 0 72 72" fill="none"><circle opacity="0.7" cx="36" cy="36" r="36" fill="#FFE2CC"></circle><path d="M23 32.2637H49V47.2637C49 47.7941 48.7893 48.3028 48.4142 48.6779C48.0391 49.053 47.5304 49.2637 47 49.2637H25C24.4696 49.2637 23.9609 49.053 23.5858 48.6779C23.2107 48.3028 23 47.7941 23 47.2637V32.2637ZM30.35 39.4137L32.35 41.3337C32.4446 41.4213 32.5153 41.5315 32.5555 41.6539C32.5957 41.7764 32.6042 41.9071 32.58 42.0337L32.12 44.7537C32.0956 44.9004 32.1126 45.0511 32.1692 45.1887C32.2257 45.3264 32.3195 45.4455 32.44 45.5328C32.5605 45.62 32.7029 45.672 32.8513 45.6827C32.9997 45.6935 33.1482 45.6626 33.28 45.5937L35.71 44.3137C35.8262 44.2548 35.9547 44.2241 36.085 44.2241C36.2153 44.2241 36.3438 44.2548 36.46 44.3137L38.89 45.5937C39.0199 45.6497 39.1624 45.6703 39.3029 45.6534C39.4434 45.6364 39.5769 45.5825 39.6897 45.4971C39.8026 45.4117 39.8908 45.2979 39.9453 45.1673C39.9998 45.0367 40.0187 44.894 40 44.7537L39.54 42.0337C39.5158 41.9071 39.5243 41.7764 39.5645 41.6539C39.6047 41.5315 39.6754 41.4213 39.77 41.3337L41.77 39.4137C41.8748 39.3084 41.9485 39.1763 41.9833 39.0318C42.018 38.8874 42.0123 38.7362 41.9669 38.5948C41.9215 38.4533 41.838 38.3271 41.7257 38.2299C41.6134 38.1327 41.4765 38.0683 41.33 38.0437L38.6 37.6537C38.4766 37.6397 38.3581 37.5972 38.254 37.5295C38.1498 37.4618 38.0629 37.3708 38 37.2637L36.78 34.7937C36.7134 34.6611 36.6113 34.5496 36.4851 34.4717C36.3588 34.3938 36.2134 34.3525 36.065 34.3525C35.9166 34.3525 35.7712 34.3938 35.6449 34.4717C35.5187 34.5496 35.4166 34.6611 35.35 34.7937L34.12 37.2637C34.0631 37.3801 33.9788 37.481 33.8743 37.5577C33.7697 37.6343 33.6482 37.6844 33.52 37.7037L30.8 38.0937C30.6622 38.1224 30.5342 38.1865 30.4287 38.2797C30.3232 38.3729 30.2439 38.4921 30.1984 38.6253C30.153 38.7585 30.1431 38.9013 30.1697 39.0396C30.1963 39.1778 30.2584 39.3068 30.35 39.4137Z" fill="#FF0032"></path><path d="M49 29.2637V27.2637C49 26.7332 48.7893 26.2245 48.4142 25.8495C48.0391 25.4744 47.5304 25.2637 47 25.2637H44V22.2637C44 21.9985 43.8946 21.7441 43.7071 21.5566C43.5196 21.369 43.2652 21.2637 43 21.2637C42.7348 21.2637 42.4804 21.369 42.2929 21.5566C42.1054 21.7441 42 21.9985 42 22.2637V25.2637H30V22.2637C30 21.9985 29.8946 21.7441 29.7071 21.5566C29.5196 21.369 29.2652 21.2637 29 21.2637C28.7348 21.2637 28.4804 21.369 28.2929 21.5566C28.1054 21.7441 28 21.9985 28 22.2637V25.2637H25C24.4696 25.2637 23.9609 25.4744 23.5858 25.8495C23.2107 26.2245 23 26.7332 23 27.2637V29.2637H49Z" fill="#FBC52C"></path></svg>