<svg xmlns="http://www.w3.org/2000/svg" width="72" height="73" viewBox="0 0 72 73" fill="none"><circle opacity="0.7" cx="36" cy="36.3682" r="36" fill="#FFE2CC"></circle><g clip-path="url(#clip0_18007_19007)"><path d="M21.9375 47.6807V52.3682H35.0625V47.6807C35.0625 46.1298 33.8009 44.8682 32.25 44.8682H24.75C23.1991 44.8682 21.9375 46.1298 21.9375 47.6807Z" fill="#FF0032"></path><path d="M28.5 44.8682C30.5711 44.8682 32.25 43.1892 32.25 41.1182C32.25 39.0471 30.5711 37.3682 28.5 37.3682C26.4289 37.3682 24.75 39.0471 24.75 41.1182C24.75 43.1892 26.4289 44.8682 28.5 44.8682Z" fill="#FF0032"></path><path d="M36.9375 47.6807V52.3682H50.0625V47.6807C50.0625 46.1298 48.8009 44.8682 47.25 44.8682H39.75C38.1991 44.8682 36.9375 46.1298 36.9375 47.6807Z" fill="#FF0032"></path><path d="M43.5 44.8682C45.5711 44.8682 47.25 43.1892 47.25 41.1182C47.25 39.0471 45.5711 37.3682 43.5 37.3682C41.4289 37.3682 39.75 39.0471 39.75 41.1182C39.75 43.1892 41.4289 44.8682 43.5 44.8682Z" fill="#FF0032"></path><path d="M23.8125 25.9932C23.8125 29.095 26.3357 31.6182 29.4375 31.6182V35.8324L34.4656 31.6182H37.5344L42.5625 35.8324V31.6182C45.6643 31.6182 48.1875 29.095 48.1875 25.9932C48.1875 22.8914 45.6643 20.3682 42.5625 20.3682H29.4375C26.3357 20.3682 23.8125 22.8914 23.8125 25.9932ZM38.8125 25.0557H40.6875V26.9307H38.8125V25.0557ZM35.0625 25.0557H36.9375V26.9307H35.0625V25.0557ZM31.3125 25.0557H33.1875V26.9307H31.3125V25.0557Z" fill="#FBC52C"></path></g><defs><clipPath id="clip0_18007_19007"><rect width="32" height="32" fill="white" transform="translate(20 20.3682)"></rect></clipPath></defs></svg>