<svg xmlns="http://www.w3.org/2000/svg" width="62" height="62" viewBox="0 0 62 62" fill="none"><circle cx="31" cy="31" r="31" fill="url(#paint0_linear_24072_11427)"></circle><g clip-path="url(#clip0_24072_11427)"><path d="M46.9889 21.138C46.9889 25.9997 44.8694 29.5317 44.7803 29.679C44.6007 29.9725 44.29 30.1334 43.9694 30.1334C43.801 30.1334 43.6314 30.0888 43.4779 29.996C43.0297 29.7236 42.8861 29.1405 43.1572 28.6924C43.177 28.6602 45.0898 25.4451 45.0898 21.138C45.0898 18.6818 43.4927 16.8991 41.2915 16.8991C39.1968 16.8991 37.4933 18.6026 37.4933 20.6985C37.4933 21.5911 37.9254 23.8592 38.0913 24.6577C38.199 25.1715 37.8685 25.6741 37.3547 25.7818C36.8409 25.887 36.3383 25.559 36.2318 25.0464C36.1662 24.7332 35.5918 21.9489 35.5918 20.6985C35.5918 17.5565 38.1483 15 41.2915 15C44.5388 15 46.9889 17.6382 46.9889 21.138ZM41.4525 22.6323C41.8301 25.788 42.3773 31.9372 41.7484 32.5636L27.9495 46.3637C27.1015 47.2129 25.7236 47.2129 24.8743 46.3624L15.6475 37.1368C14.7982 36.2888 14.7982 34.9109 15.6475 34.0616L29.4475 20.2628C29.6667 20.0436 32.0535 20.0337 34.7375 20.1736C34.7227 20.3507 34.6843 20.5178 34.6843 20.6985C34.6843 21.3869 34.8366 22.454 34.9963 23.3924C34.7153 23.8097 34.5506 24.311 34.5506 24.8521C34.5506 26.2931 35.7193 27.4618 37.1603 27.4618C38.6014 27.4618 39.77 26.2931 39.77 24.8521C39.77 23.9644 39.3256 23.182 38.6484 22.7115C38.5097 21.8858 38.3983 21.0885 38.3983 20.6985C38.3983 20.6144 38.4157 20.5364 38.4231 20.4534C38.7536 20.4881 39.0792 20.524 39.3875 20.5624C41.2111 20.7864 41.2297 20.7827 41.4525 22.6323ZM34.0975 32.9598C33.8833 32.3643 33.5268 31.65 32.753 30.8279L33.8004 29.7793L32.6342 28.6144L31.5039 29.7459C29.991 28.7097 28.4311 28.7939 27.3726 29.8524C26.2188 31.0062 26.4912 32.4708 27.338 34.173C27.9198 35.3516 28.0263 36.03 27.5744 36.4819C27.1102 36.9461 26.3612 36.7444 25.6815 36.0659C24.909 35.2934 24.4559 34.3389 24.2306 33.5652L22.48 34.6026C22.6831 35.3033 23.2303 36.3024 24.0028 37.1244L22.8613 38.2671L24.0263 39.4333L25.2532 38.2077C26.8712 39.3491 28.5029 39.1956 29.5614 38.1371C30.6447 37.0514 30.74 35.8381 29.8115 33.9106C29.1677 32.5289 29.013 31.8505 29.3943 31.4704C29.7286 31.1362 30.3228 31.0409 31.0966 31.8146C31.9545 32.6725 32.2392 33.5057 32.394 33.9465L34.0975 32.9598Z" fill="white"></path></g><defs><linearGradient id="paint0_linear_24072_11427" x1="31" y1="0" x2="31" y2="62" gradientUnits="userSpaceOnUse"><stop stop-color="#FFBC00"></stop><stop offset="1" stop-color="#FF0032"></stop></linearGradient><clipPath id="clip0_24072_11427"><rect width="32" height="32" fill="white" transform="translate(15 15)"></rect></clipPath></defs></svg>