<svg xmlns="http://www.w3.org/2000/svg" width="72" height="73" viewBox="0 0 72 73" fill="none"><circle opacity="0.7" cx="36" cy="36.3679" r="36" fill="#FFE2CC"></circle><g clip-path="url(#clip0_4027_7609)"><path d="M25.0024 37.0028L23.0137 38.9916C22.4646 39.5406 22.4646 40.431 23.0137 40.9803C23.563 41.5294 24.4534 41.5294 25.0024 40.9803L26.9912 38.9916C27.5405 38.4423 27.5405 37.5519 26.9912 37.0028C26.4421 36.4535 25.5518 36.4535 25.0024 37.0028Z" fill="#FFBC00"></path><path d="M31.6316 43.632L29.6428 45.6207C29.0938 46.1698 29.0938 47.0602 29.6428 47.6093C30.1919 48.1586 31.0823 48.1586 31.6316 47.6093L33.6204 45.6207C34.1694 45.0714 34.1694 44.181 33.6204 43.632C33.071 43.0826 32.1809 43.0826 31.6316 43.632Z" fill="#FFBC00"></path><path d="M36.272 49.5978L36.9348 48.935C37.4841 48.3857 37.4841 47.4953 36.9348 46.9462C36.3857 46.3972 35.4954 46.3972 34.946 46.9462L34.2832 47.6091C33.7341 48.1584 33.7341 49.0488 34.2832 49.5978C34.8323 50.1472 35.7229 50.1472 36.272 49.5978Z" fill="#FFBC00"></path><path d="M29.6428 38.9916L26.3284 42.306C25.7791 42.8553 25.7791 43.7457 26.3284 44.2948C26.8774 44.8439 27.7678 44.8439 28.3169 44.2948L31.6316 40.9803C32.1807 40.431 32.1807 39.5406 31.6316 38.9916C31.0823 38.4423 30.1921 38.4423 29.6428 38.9916Z" fill="#FFBC00"></path><path d="M31.9629 24.7388L29.5554 22.3059C29.1892 21.9397 28.5957 21.9397 28.2295 22.3059L20.2747 30.2607C19.9084 30.627 19.9084 31.2205 20.2747 31.5867L21.8999 33.2371C22.4143 33.7517 22.802 34.3789 23.0322 35.0693L23.3452 36.0083L23.6768 35.6768C24.9561 34.3977 27.0378 34.3977 28.3171 35.6768C28.7224 36.0823 28.9846 36.5718 29.1331 37.0874C30.3684 36.448 31.9229 36.6309 32.9575 37.6655C33.9922 38.7002 34.175 40.2546 33.5356 41.4902C34.0513 41.6387 34.5408 41.9004 34.9463 42.3059C35.5957 42.9553 35.9119 43.8118 35.9019 44.6648C36.7551 44.655 37.6113 44.9712 38.2607 45.6206C38.5869 45.9468 39.5867 46.9463 39.5867 46.9463C40.1357 47.4956 41.0261 47.4956 41.5752 46.9463C42.1245 46.3972 42.1245 45.5068 41.5752 44.9575L39.2551 42.6375C38.8889 42.2712 38.8889 41.6777 39.2551 41.3115C39.6213 40.9456 40.2148 40.9456 40.5808 41.3115L42.9011 43.6318C43.4502 44.1809 44.3408 44.1809 44.8899 43.6318C45.439 43.0828 45.439 42.1921 44.8899 41.6431L42.5696 39.3228C42.2036 38.9568 42.2036 38.3633 42.5696 37.9971C42.9358 37.6309 43.5295 37.6309 43.8955 37.9971L46.2158 40.3171C46.7649 40.8662 47.6553 40.8662 48.2046 40.3171C48.7537 39.7681 48.7537 38.8777 48.2046 38.3286L42.5027 32.6267C40.6836 33.8296 38.2041 33.6313 36.6035 32.0308C36.2378 31.665 35.6436 31.665 35.2778 32.0308C33.4502 33.8584 30.4763 33.8584 28.6487 32.0308C27.552 30.9343 27.552 29.1499 28.6487 28.0535L31.9629 24.7388Z" fill="#FF2B54"></path><path d="M43.7705 22.2122C43.4043 21.8459 42.8108 21.8459 42.4446 22.2122L40.4617 24.1951C40.1135 24.5432 39.6414 24.7388 39.1492 24.7388H35.7795C35.0337 24.7388 34.3184 25.0352 33.791 25.5625L29.9744 29.3792C29.603 29.7505 29.603 30.3337 29.9744 30.7051C31.0747 31.8054 32.8513 31.8054 33.9517 30.7051C34.9434 29.7134 36.4973 29.6184 37.5967 30.4202C39.0752 31.4988 41.0469 31.5647 42.3411 30.2705L42.5696 30.042L49.0198 36.4922C49.1091 36.1619 49.1108 35.8123 49.0234 35.4878C48.8718 34.9255 49.0918 34.1265 49.5037 33.7146L51.7253 31.4929C52.0916 31.1267 52.0916 30.5332 51.7253 30.1672L43.7705 22.2122Z" fill="#FFBC00"></path></g><defs><clipPath id="clip0_4027_7609"><rect width="32" height="32" fill="white" transform="translate(20 20)"></rect></clipPath></defs></svg>