<svg xmlns="http://www.w3.org/2000/svg" width="72" height="73" viewBox="0 0 72 73" fill="none"><circle opacity="0.7" cx="36" cy="36.3679" r="36" fill="#FFE2CC"></circle><g clip-path="url(#clip0_4027_7589)"><path d="M36.9023 39.4077L36.0249 37.6301L35.1477 39.4077L33.186 39.6929L34.6055 41.0764L34.2705 43.0303L36.0249 42.1077L37.7795 43.0303L37.4443 41.0764L38.8638 39.6929L36.9023 39.4077Z" fill="#FFBC00"></path><path d="M36.5527 28.4219L32.8093 19.9998H29.9805L33.7236 28.4219H36.5527Z" fill="#FFBC00"></path><path d="M42.042 19.9998H39.229L37.4397 23.8447H40.2524L42.042 19.9998Z" fill="#FFBC00"></path><path d="M37.4053 25.7209L38.6057 28.4219H41.6328V30.2981H30.4172V28.4219H31.6704L30.47 25.7209H25.5V51.9998H46.5501V25.7209H37.4053ZM40.2715 46.46L36.0252 44.2275L31.7786 46.46L32.5896 41.7314L29.1541 38.3828L33.9019 37.6929L36.0252 33.3909L38.1482 37.6929L42.896 38.3828L39.4605 41.7314L40.2715 46.46Z" fill="#FF2B54"></path></g><defs><clipPath id="clip0_4027_7589"><rect width="32" height="32" fill="white" transform="translate(20 20)"></rect></clipPath></defs></svg>