<svg xmlns="http://www.w3.org/2000/svg" width="72" height="73" viewBox="0 0 72 73" fill="none"><circle opacity="0.7" cx="36" cy="36.3679" r="36" fill="#FFE2CC"></circle><path d="M41.9629 25.9305H30.1657C30.3782 24.2949 31.7676 23.0283 33.4437 23.0283H38.6848C40.3609 23.0283 41.7503 24.2949 41.9629 25.9305ZM39.2039 38.7659C39.1694 38.7959 39.1397 38.8158 39.105 38.8358L40.2472 40.8354C40.3758 41.0548 40.3758 41.3291 40.2472 41.5535C40.1186 41.7729 39.8863 41.9125 39.6292 41.9125H32.4252C32.1731 41.9125 31.9357 41.7729 31.8121 41.5535C31.6836 41.3291 31.6836 41.0548 31.8121 40.8354L32.9641 38.8158C32.9443 38.8009 32.9197 38.7859 32.8999 38.7659L20 28.2343V49.0283H52V28.3191L39.2039 38.7659ZM21.1965 27.3666L33.686 37.5642L35.4116 34.5423C35.5401 34.3179 35.7725 34.1833 36.0296 34.1833C36.2818 34.1833 36.5191 34.3179 36.6477 34.5423L38.3881 37.5841L50.9024 27.3666H21.1965Z" fill="#FF2B54"></path><path d="M41.9629 25.9305H30.1657C30.3782 24.2949 31.7676 23.0283 33.4437 23.0283H38.6848C40.3609 23.0283 41.7503 24.2949 41.9629 25.9305Z" fill="#FFBC00"></path><path d="M33.6613 40.4763L36.0296 36.3374L38.398 40.4763H33.6613Z" fill="#FFBC00"></path></svg>