<svg xmlns="http://www.w3.org/2000/svg" width="72" height="73" viewBox="0 0 72 73" fill="none"><circle opacity="0.7" cx="36" cy="36.3679" r="36" fill="#FFE2CC"></circle><path d="M31.429 36.3682C32.5594 36.3682 33.6643 36.033 34.6042 35.405C35.544 34.777 36.2765 33.8844 36.7091 32.84C37.1416 31.7957 37.2547 30.6466 37.0341 29.5379C36.8135 28.4293 36.2691 27.411 35.4698 26.6118C34.6704 25.8125 33.652 25.2683 32.5433 25.0479C31.4347 24.8275 30.2855 24.9408 29.2413 25.3736C28.197 25.8063 27.3045 26.5389 26.6767 27.4789C26.0488 28.4188 25.7138 29.5239 25.714 30.6542C25.7156 32.1694 26.3182 33.622 27.3897 34.6932C28.4612 35.7645 29.9139 36.3669 31.429 36.3682Z" fill="#FF0032"></path><path d="M38.905 41.089C37.4568 39.6036 35.5987 38.5836 33.5681 38.1593C31.5374 37.735 29.4263 37.9257 27.5045 38.7069C25.5827 39.4882 23.9375 40.8246 22.7789 42.5455C21.6203 44.2663 21.0009 46.2935 21 48.368C21 48.6332 21.1054 48.8876 21.2929 49.0751C21.4804 49.2627 21.7348 49.368 22 49.368H40.86C41.1252 49.368 41.3796 49.2627 41.5671 49.0751C41.7546 48.8876 41.86 48.6332 41.86 48.368C41.8639 47.3076 41.7002 46.2533 41.375 45.244C40.8908 43.6836 40.0444 42.2599 38.905 41.089Z" fill="#FF0032"></path><path d="M43.5 36.8684C45.8472 36.8684 47.75 34.9656 47.75 32.6184C47.75 30.2712 45.8472 28.3684 43.5 28.3684C41.1528 28.3684 39.25 30.2712 39.25 32.6184C39.25 34.9656 41.1528 36.8684 43.5 36.8684Z" fill="#FBC52C"></path><path d="M43.5 38.0383C42.1596 38.0434 40.8451 38.4084 39.694 39.0953C39.911 39.2893 40.13 39.4803 40.335 39.6903C41.6966 41.0899 42.7081 42.7915 43.287 44.6563C43.4853 45.2703 43.6314 45.8998 43.724 46.5383H50C50.2652 46.5383 50.5196 46.433 50.7071 46.2454C50.8946 46.0579 51 45.8035 51 45.5383C50.9979 43.5499 50.207 41.6434 48.801 40.2374C47.3949 38.8313 45.4885 38.0404 43.5 38.0383Z" fill="#FBC52C"></path></svg>