<svg xmlns="http://www.w3.org/2000/svg" width="62" height="63" viewBox="0 0 62 63" fill="none"><circle cx="31" cy="31.3672" r="31" fill="url(#paint0_linear_24081_11447)"></circle><g clip-path="url(#clip0_24081_11447)"><path d="M25.3465 31.1133C29.7932 31.1133 33.3999 27.5067 33.3999 23.06C33.3999 18.6133 29.7932 15 25.3465 15C20.8999 15 17.2932 18.6067 17.2932 23.0533C17.2932 27.5 20.8999 31.1133 25.3465 31.1133ZM22.5332 26.24C22.6065 25.9733 22.6799 25.7133 22.7599 25.4467C22.8532 25.14 22.9399 25.1067 23.2199 25.2533C23.6999 25.5 24.2065 25.64 24.7399 25.7067C25.0799 25.7467 25.4199 25.7133 25.7332 25.5733C26.3265 25.3133 26.4199 24.6267 25.9199 24.2133C25.7465 24.0733 25.5532 23.9667 25.3532 23.88C24.8332 23.6533 24.2932 23.48 23.7999 23.1867C23.0065 22.7133 22.4999 22.0533 22.5599 21.0867C22.6265 19.9933 23.2465 19.3067 24.2465 18.9467C24.6599 18.7933 24.6599 18.8 24.6665 18.3667C24.6665 18.22 24.6665 18.0733 24.6665 17.9267C24.6732 17.6 24.7332 17.5467 25.0532 17.5333C25.1532 17.5333 25.2532 17.5333 25.3532 17.5333C26.0465 17.5333 26.0465 17.5333 26.0465 18.2267C26.0465 18.7133 26.0465 18.72 26.5332 18.7933C26.9065 18.8533 27.2599 18.96 27.6065 19.1133C27.7999 19.2 27.8665 19.3333 27.8132 19.5333C27.7265 19.8333 27.6465 20.1333 27.5465 20.4267C27.4532 20.7067 27.3665 20.7467 27.0999 20.62C26.5599 20.36 25.9932 20.2467 25.3932 20.28C25.2332 20.2867 25.0865 20.3067 24.9399 20.3733C24.4265 20.6 24.3399 21.1667 24.7799 21.52C24.9999 21.7 25.2532 21.8267 25.5199 21.9333C25.9732 22.12 26.4332 22.3067 26.8732 22.5467C28.2532 23.3133 28.6265 25.0467 27.6532 26.2267C27.2999 26.6533 26.8465 26.94 26.3065 27.0867C26.0732 27.1533 25.9665 27.2733 25.9799 27.5133C25.9932 27.7533 25.9799 27.9867 25.9799 28.2267C25.9799 28.44 25.8732 28.5533 25.6599 28.56C25.4065 28.5667 25.1465 28.5667 24.8932 28.56C24.6665 28.5533 24.5599 28.4267 24.5599 28.2067C24.5599 28.0333 24.5599 27.86 24.5532 27.6867C24.5465 27.3067 24.5399 27.2867 24.1665 27.2267C23.6932 27.1533 23.2332 27.0467 22.7999 26.8333C22.4732 26.68 22.4399 26.5933 22.5332 26.24Z" fill="white"></path><path d="M43.4132 31.7866H42.4732C41.8532 29.8866 40.6398 28.1999 39.0198 26.8933C39.0198 26.8333 39.0065 26.7666 38.9932 26.7066C38.6532 25.5133 39.0732 24.4266 39.5598 23.6466C39.8998 23.0999 39.4598 22.3999 38.8198 22.4799C37.3865 22.6599 36.3998 23.1866 35.7198 23.7799C35.2532 24.1866 34.9198 24.7333 34.7732 25.3399C33.7465 29.5933 29.9132 32.7599 25.3465 32.7599C23.1265 32.7599 21.0865 32.0133 19.4532 30.7599C18.8865 31.9866 18.5798 33.3266 18.5798 34.7333C18.5798 35.4933 18.6732 36.2333 18.8465 36.9466C18.8465 36.9466 18.8465 36.9599 18.8532 36.9799C19.0332 37.7199 19.3065 38.4333 19.6532 39.1066C20.1132 40.0999 20.7798 41.2599 21.6998 42.1999C23.0265 43.5666 23.2532 45.2599 23.2865 45.9932V46.3066C23.2865 46.3199 23.2865 46.3333 23.2865 46.3466C23.2865 46.3533 23.2865 46.3533 23.2865 46.3533C23.3132 46.7132 23.6132 46.9999 23.9798 46.9999H28.1932C28.5732 46.9999 28.8865 46.6933 28.8865 46.3066V45.2666C29.4998 45.3466 30.1265 45.3932 30.7598 45.3932C31.2598 45.3932 31.7465 45.3666 32.2332 45.3133V46.3066C32.2332 46.6866 32.5398 46.9999 32.9265 46.9999H37.1532C37.5332 46.9999 37.8465 46.6933 37.8465 46.3066V45.2666C37.8532 44.9199 37.9732 43.5399 39.2798 42.3599C39.3265 42.3199 39.3732 42.2799 39.4198 42.2399C39.4332 42.2266 39.4465 42.2199 39.4598 42.2066C40.9132 40.9133 41.9865 39.2999 42.5398 37.4999H43.4265C44.1332 37.4999 44.7065 36.9266 44.7065 36.2199V33.0666C44.6932 32.3599 44.1198 31.7866 43.4132 31.7866ZM38.1398 32.0133C37.5598 32.0133 37.0932 31.5466 37.0932 30.9666C37.0932 30.3866 37.5598 29.9199 38.1398 29.9199C38.7198 29.9199 39.1865 30.3866 39.1865 30.9666C39.1865 31.5466 38.7198 32.0133 38.1398 32.0133Z" fill="white"></path></g><defs><linearGradient id="paint0_linear_24081_11447" x1="31" y1="0.367187" x2="31" y2="62.3672" gradientUnits="userSpaceOnUse"><stop stop-color="#FFBC00"></stop><stop offset="1" stop-color="#FF0032"></stop></linearGradient><clipPath id="clip0_24081_11447"><rect width="32" height="32" fill="white" transform="translate(15 15)"></rect></clipPath></defs></svg>